# xmcd
#
# Track frame offsets:
#	150
#	22934
#	39995
#	58678
#	76122
#	96019
#	114167
#	131067
#	144570
#	158458
#	172754
#	195249
#	216800
#	229964
#	246400
#	261307
#	278474
#	293463
#	306186
#	321342
#
# Disc length: 4504 seconds
#
# Revision: 0
# Processed by: cddbd v1.5.2PL0 Copyright (c) Steve Scherf et al.
# Submitted via: EasyCDDAExtractor 11.5.3.1
#
DISCID=04119614
DTITLE=Various Artist - NME The Album 2009 Disc 1
DYEAR=2009
DGENRE=
TTITLE0=Muse - Uprising
TTITLE1=Kasabian - Fire
TTITLE2=Friendly Fires - Kiss of Life
TTITLE3=The temper Trap - Sweet Disposition
TTITLE4=Yeah Yeah Yeahs - Zero
TTITLE5=Jaime T - Sticks N Stones
TTITLE6=The Big Pink - Dominos
TTITLE7=Mazimo Park - In Another World (You'd Have Found Yourself By Now)
TTITLE8=The Enemy - Be Somebody
TTITLE9=Franz Ferdinand - Ulysses
TTITLE10=White Lies - Death
TTITLE11=Passion Pit - The Reeling
TTITLE12=The Maccabees - No Kind Words
TTITLE13=Gossip - Love Long Distance
TTITLE14=Jack Penate - Tonight's Today
TTITLE15=Peter Doherty - The Last Of The English Roses
TTITLE16=Esser - Headlock
TTITLE17=The Virgins - Private Affair
TTITLE18=The Cribs - Cheat On Me
TTITLE19=Gallows - I Dread The Night
EXTD=YEAR: 2009\n
EXTT0=
EXTT1=
EXTT2=
EXTT3=
EXTT4=
EXTT5=
EXTT6=
EXTT7=
EXTT8=
EXTT9=
EXTT10=
EXTT11=
EXTT12=
EXTT13=
EXTT14=
EXTT15=
EXTT16=
EXTT17=
EXTT18=
EXTT19=
PLAYORDER=
